<svg xmlns="http://www.w3.org/2000/svg" height="32" viewBox="0 0 32 32" width="32"><path d="m0 0h32v32h-32z" opacity="0"/><path d="m23.4 7.553a2.112 2.112 0 0 0 -2.984 0l-2.116 2.118v-5.571a2.1 2.1 0 0 0 -.618-1.492l-1.988-1.99a2.1 2.1 0 0 0 -1.494-.618h-12.072a2.112 2.112 0 0 0 -2.11 2.11v19.782a2.112 2.112 0 0 0 2.11 2.108h14.063a2.112 2.112 0 0 0 2.11-2.11v-6.25l5.1-5.1a2.108 2.108 0 0 0 -.001-2.987zm-9.318-6.147a.767.767 0 0 1 .618.206l1.988 1.988a.767.767 0 0 1 .206.618h-2.812zm2.813 20.486a.7.7 0 0 1 -.7.7h-14.067a.7.7 0 0 1 -.7-.7v-19.782a.7.7 0 0 1 .7-.7h10.547v3.512a.7.7 0 0 0 .7.7h3.516v5.453l-2.071 2.08-.994.994a.7.7 0 0 0 -.17.275l-.994 2.983a.7.7 0 0 0 .889.889l2.983-.994a.7.7 0 0 0 .275-.17l.085-.085v4.845zm-1.577-7.246.994.994-.38.38-1.492.5.5-1.492zm1.989 0-.994-.994 3.38-3.383.994.994zm5.1-5.1-.725.725-.994-.994.725-.726a.7.7 0 1 1 .994.995z" transform="translate(3.982 4)"/><path d="m70.566 150h-9.845a.7.7 0 1 0 0 1.406h9.844a.7.7 0 1 0 0-1.406z" transform="translate(-53.205 -138.968)"/><path d="m67.753 210h-7.032a.7.7 0 1 0 0 1.406h7.032a.7.7 0 0 0 0-1.406z" transform="translate(-53.205 -196.156)"/><path d="m67.753 270h-7.032a.7.7 0 0 0 0 1.406h7.032a.7.7 0 0 0 0-1.406z" transform="translate(-53.205 -253.343)"/><path d="m67.753 330h-7.032a.7.7 0 1 0 0 1.406h7.032a.7.7 0 1 0 0-1.406z" transform="translate(-53.205 -310.53)"/><path d="m184.94 422h-4.219a.7.7 0 1 0 0 1.406h4.219a.7.7 0 1 0 0-1.406z" transform="translate(-167.58 -398.217)"/></svg>