<svg xmlns="http://www.w3.org/2000/svg" fill="none" height="32" viewBox="0 0 110 32" width="110"><rect fill="#000" height="32" rx="4" width="110"/><g fill="#fff"><path d="m24.7973 16.5804c.0217-1.681.9244-3.2716 2.3566-4.1521-.9035-1.2903-2.4168-2.1084-3.9912-2.1577-1.6792-.1762-3.3072 1.0048-4.1629 1.0048-.8723 0-2.1898-.9873-3.6085-.9581-1.8492.0598-3.5732 1.1111-4.4729 2.7279-1.93401 3.3484-.4914 8.2694 1.3612 10.9761.9269 1.3253 2.0102 2.8058 3.4276 2.7533 1.3871-.0576 1.9051-.8845 3.5794-.8845 1.6588 0 2.1448.8845 3.591.8511 1.4884-.0242 2.4262-1.3313 3.3205-2.6692.666-.9443 1.1785-1.988 1.5185-3.0925-1.7492-.7398-2.9172-2.5-2.9193-4.3991z"/><path d="m22.0656 8.49062c.8116-.97421 1.2114-2.22639 1.1146-3.49062-1.2399.13022-2.3851.72278-3.2076 1.65961-.8043.91533-1.2229 2.14548-1.1437 3.36139 1.2403.0128 2.4596-.56373 3.2367-1.53038z"/><path d="m35.4258 6.36328v5.63672h2.0351c1.6797 0 2.6524-1.0391 2.6524-2.83203 0-1.77344-.9805-2.80469-2.6524-2.80469zm.875.75391h1.0625c1.1679 0 1.8594.76172 1.8594 2.0625 0 1.31251-.6797 2.06641-1.8594 2.06641h-1.0625zm6.6992 4.96481c1.2422 0 2.0039-.832 2.0039-2.20309 0-1.3711-.7656-2.20313-2.0039-2.20313-1.2422 0-2.0078.83594-2.0078 2.20313 0 1.37109.7617 2.20309 2.0078 2.20309zm0-.7148c-.7305 0-1.1406-.543-1.1406-1.48829 0-.94532.4101-1.49219 1.1406-1.49219.7266 0 1.1406.54687 1.1406 1.49219 0 .94139-.414 1.48829-1.1406 1.48829zm8.3906-3.60939h-.8398l-.7578 3.27339h-.0664l-.875-3.27339h-.8047l-.875 3.27339h-.0625l-.7617-3.27339h-.8516l1.1719 4.24219h.8632l.875-3.16406h.0665l.8789 3.16406h.8711zm.8672 4.24219h.8399v-2.48828c0-.6836.3945-1.10547 1.0156-1.10547s.9179.34375.9179 1.04687v2.54688h.8399v-2.74609c0-1.01172-.5234-1.57813-1.4727-1.57813-.6406 0-1.0625.28516-1.2695.75391h-.0625v-.67188h-.8086zm4.836 0h.8398v-5.90625h-.8398zm3.8984.082c1.2422 0 2.0039-.832 2.0039-2.20309 0-1.3711-.7656-2.20313-2.0039-2.20313-1.2422 0-2.0078.83594-2.0078 2.20313 0 1.37109.7617 2.20309 2.0078 2.20309zm0-.7148c-.7305 0-1.1406-.543-1.1406-1.48829 0-.94532.4101-1.49219 1.1406-1.49219.7266 0 1.1406.54687 1.1406 1.49219 0 .94139-.414 1.48829-1.1406 1.48829zm4.1914.7031c.5586 0 1.0234-.2422 1.2773-.6719h.0664v.6016h.8086v-2.90234c0-.89063-.6015-1.42188-1.6679-1.42188-.9649 0-1.6524.46484-1.7383 1.17969h.8125c.0937-.30859.418-.48438.8867-.48438.5742 0 .8711.26172.8711.72657v.37109l-1.1523.07031c-1.0118.0625-1.5821.50394-1.5821 1.26564 0 .7734.5977 1.2656 1.418 1.2656zm.2148-.6758c-.457 0-.789-.2304-.789-.625 0-.3867.2656-.5937.8515-.6328l1.0391-.0703v.3672c0 .5469-.4688.9609-1.1016.9609zm4.6875.6758c.586 0 1.0821-.2773 1.336-.7422h.0664v.6719h.8047v-5.90625h-.8399v2.33594h-.0625c-.2304-.46485-.7226-.7461-1.3047-.7461-1.0742 0-1.7656.85547-1.7656 2.19141 0 1.3438.6836 2.1953 1.7656 2.1953zm.2383-3.66796c.7031 0 1.1446.57032 1.1446 1.47657 0 .91409-.4376 1.47269-1.1446 1.47269-.7109 0-1.1367-.5508-1.1367-1.47269 0-.91797.4297-1.47657 1.1367-1.47657zm7.2149 3.67966c1.2421 0 2.0039-.832 2.0039-2.20309 0-1.3711-.7657-2.20313-2.0039-2.20313-1.2422 0-2.0079.83594-2.0079 2.20313 0 1.37109.7618 2.20309 2.0079 2.20309zm0-.7148c-.7305 0-1.1407-.543-1.1407-1.48829 0-.94532.4102-1.49219 1.1407-1.49219.7265 0 1.1406.54687 1.1406 1.49219 0 .94139-.4141 1.48829-1.1406 1.48829zm3.0156.6328h.8398v-2.48828c0-.6836.3946-1.10547 1.0157-1.10547.621 0 .9179.34375.9179 1.04687v2.54688h.8399v-2.74609c0-1.01172-.5235-1.57813-1.4727-1.57813-.6406 0-1.0625.28516-1.2695.75391h-.0625v-.67188h-.8086zm7.2812-5.3125v1.08203h-.6757v.67188h.6757v2.44139c0 .8164.3711 1.1445 1.3047 1.1445.1641 0 .3203-.0195.4571-.0429v-.668c-.1172.0117-.1915.0195-.3204.0195-.4179 0-.6015-.1992-.6015-.6562v-2.23829h.9219v-.67188h-.9219v-1.08203zm2.7891 5.3125h.8398v-2.48438c0-.66406.3829-1.10546 1.0704-1.10546.5937 0 .9101.34765.9101 1.04687v2.54297h.8399v-2.74219c0-1.0039-.5586-1.57812-1.4649-1.57812-.6406 0-1.0898.28125-1.2969.7539h-.0664v-2.33984h-.832zm7.6328-1.1367c-.1562.3437-.5039.5312-1.0117.5312-.6719 0-1.1055-.4843-1.1328-1.2539v-.039h3.0039v-.2891c0-1.32812-.7149-2.13672-1.8984-2.13672-1.1993 0-1.961.86328-1.961 2.21094 0 1.35548.7461 2.19528 1.9649 2.19528.9726 0 1.6601-.4687 1.8437-1.2187zm-1.043-2.50392c.6211 0 1.0274.44921 1.0469 1.13671h-2.1484c.0469-.68359.4805-1.13671 1.1015-1.13671z"/><path d="m41.457 25h1.916l-2.9355-8.4551h-2.0801l-2.9355 8.4551h1.7754l.6504-2.0508h2.9707zm-2.1679-6.7383h.1054l1.0489 3.3633h-2.2149zm9.0879.1817c-.8907 0-1.6231.4394-1.9747 1.166h-.1054v-1.0606h-1.6524v8.5899h1.7051v-3.1231h.1055c.3164.6797 1.0254 1.084 1.9511 1.084 1.6172 0 2.6075-1.2539 2.6075-3.3281 0-2.0801-1.002-3.3281-2.6367-3.3281zm-.5801 5.2793c-.9024 0-1.4649-.7383-1.4649-1.9454 0-1.207.5625-1.9511 1.4707-1.9511s1.459.7324 1.459 1.9453c0 1.2187-.5449 1.9512-1.4648 1.9512zm8.3379-5.2793c-.8907 0-1.6231.4394-1.9746 1.166h-.1055v-1.0606h-1.6524v8.5899h1.7051v-3.1231h.1055c.3164.6797 1.0254 1.084 1.9512 1.084 1.6171 0 2.6074-1.2539 2.6074-3.3281 0-2.0801-1.002-3.3281-2.6367-3.3281zm-.5801 5.2793c-.9024 0-1.4649-.7383-1.4649-1.9454 0-1.207.5625-1.9511 1.4707-1.9511.9083 0 1.459.7324 1.459 1.9453 0 1.2187-.5449 1.9512-1.4648 1.9512zm7.4883-1.0606c.0644 1.5645 1.3711 2.5547 3.3867 2.5547 2.1211 0 3.4277-1.043 3.4277-2.7305 0-1.3066-.7324-2.039-2.4316-2.4023l-1.0196-.2168c-.9902-.2168-1.3945-.5274-1.3945-1.0606 0-.6621.586-1.0898 1.4707-1.0898.8555 0 1.4766.4512 1.5586 1.1426h1.6641c-.0528-1.4942-1.3711-2.5313-3.2344-2.5313-1.9512 0-3.2344 1.043-3.2344 2.6192 0 1.2832.7559 2.0742 2.2969 2.4023l1.1016.2402c1.0371.2286 1.459.5508 1.459 1.1075 0 .6562-.6504 1.1191-1.5704 1.1191-.9961 0-1.6875-.4512-1.7695-1.1543zm8.8066-5.6543v1.5996h-1.0078v1.2949h1.0078v3.3575c0 1.2539.6211 1.7636 2.1914 1.7636.3281 0 .6445-.0351.8555-.0761v-1.2598c-.1641.0176-.2813.0293-.5039.0293-.5801 0-.8379-.2695-.8379-.8496v-2.9649h1.3418v-1.2949h-1.3418v-1.5996zm7.2891 8.127c1.9863 0 3.1816-1.2539 3.1816-3.3633 0-2.0918-1.2129-3.3633-3.1816-3.3633-1.9688 0-3.1817 1.2773-3.1817 3.3633 0 2.1035 1.1953 3.3633 3.1817 3.3633zm0-1.3477c-.9141 0-1.4297-.7383-1.4297-2.0156 0-1.2656.5215-2.0098 1.4297-2.0098.9023 0 1.4297.7442 1.4297 2.0098 0 1.2773-.5215 2.0156-1.4297 2.0156zm4.5761 1.2129h1.7051v-3.6094c0-.9082.6387-1.4648 1.5703-1.4648.2754 0 .6739.0469.8086.0937v-1.5c-.1465-.0468-.4336-.0761-.6679-.0761-.8204 0-1.4883.4863-1.6582 1.1308h-.1055v-1.0254h-1.6524zm9.252-1.8223c-.1816.4395-.6445.6856-1.3184.6856-.8906 0-1.4531-.6153-1.4765-1.5996v-.0879h4.4355v-.5098c0-2.039-1.125-3.2578-3.0293-3.2578-1.9219 0-3.1054 1.3008-3.1054 3.3984 0 2.086 1.1601 3.3282 3.1289 3.3282 1.582 0 2.7011-.7559 2.9531-1.9571zm-1.3828-3.498c.7969 0 1.3125.5508 1.3476 1.4355h-2.7539c.0586-.8672.6153-1.4355 1.4063-1.4355z"/></g></svg>