<svg xmlns="http://www.w3.org/2000/svg" xmlns:xlink="http://www.w3.org/1999/xlink" fill="none" height="32" viewBox="0 0 110 32" width="110"><filter id="a" color-interpolation-filters="sRGB" filterUnits="userSpaceOnUse" height="25.7188" width="23.0938" x="4" y="3"><feFlood flood-opacity="0" result="BackgroundImageFix"/><feBlend in="SourceGraphic" in2="BackgroundImageFix" mode="normal" result="shape"/><feColorMatrix in="SourceAlpha" result="hardAlpha" type="matrix" values="0 0 0 0 0 0 0 0 0 0 0 0 0 0 0 0 0 0 127 0"/><feOffset dy="-.15"/><feComposite in2="hardAlpha" k2="-1" k3="1" operator="arithmetic"/><feColorMatrix type="matrix" values="0 0 0 0 0 0 0 0 0 0 0 0 0 0 0 0 0 0 0.12 0"/><feBlend in2="shape" mode="normal" result="effect1_innerShadow_509_30149"/><feColorMatrix in="SourceAlpha" result="hardAlpha" type="matrix" values="0 0 0 0 0 0 0 0 0 0 0 0 0 0 0 0 0 0 127 0"/><feOffset dy=".15"/><feComposite in2="hardAlpha" k2="-1" k3="1" operator="arithmetic"/><feColorMatrix type="matrix" values="0 0 0 0 1 0 0 0 0 1 0 0 0 0 1 0 0 0 0.25 0"/><feBlend in2="effect1_innerShadow_509_30149" mode="normal" result="effect2_innerShadow_509_30149"/></filter><filter id="b" color-interpolation-filters="sRGB" filterUnits="userSpaceOnUse" height="12.8594" width="16.6875" x="4.46094" y="15.8594"><feFlood flood-opacity="0" result="BackgroundImageFix"/><feBlend in="SourceGraphic" in2="BackgroundImageFix" mode="normal" result="shape"/><feColorMatrix in="SourceAlpha" result="hardAlpha" type="matrix" values="0 0 0 0 0 0 0 0 0 0 0 0 0 0 0 0 0 0 127 0"/><feOffset dy="-.15"/><feComposite in2="hardAlpha" k2="-1" k3="1" operator="arithmetic"/><feColorMatrix type="matrix" values="0 0 0 0 0 0 0 0 0 0 0 0 0 0 0 0 0 0 0.08 0"/><feBlend in2="shape" mode="normal" result="effect1_innerShadow_509_30149"/></filter><linearGradient id="c" gradientUnits="userSpaceOnUse" x1="15.8278" x2="-.954199" y1="4.56822" y2="21.3502"><stop offset="0" stop-color="#00a0ff"/><stop offset=".0066" stop-color="#00a1ff"/><stop offset=".2601" stop-color="#00beff"/><stop offset=".5122" stop-color="#00d2ff"/><stop offset=".7604" stop-color="#00dfff"/><stop offset="1" stop-color="#00e3ff"/></linearGradient><linearGradient id="d" gradientUnits="userSpaceOnUse" x1="27.8642" x2="3.66829" y1="15.8619" y2="15.8619"><stop offset="0" stop-color="#ffe000"/><stop offset=".4087" stop-color="#ffbd00"/><stop offset=".7754" stop-color="#ffa500"/><stop offset="1" stop-color="#ff9c00"/></linearGradient><linearGradient id="e" gradientUnits="userSpaceOnUse" x1="18.853" x2="-3.90546" y1="18.1533" y2="40.9118"><stop offset="0" stop-color="#ff3a44"/><stop offset="1" stop-color="#c31162"/></linearGradient><linearGradient id="f" gradientUnits="userSpaceOnUse" x1="1.32234" x2="11.4846" y1="-3.96412" y2="6.19818"><stop offset="0" stop-color="#32a071"/><stop offset=".0685" stop-color="#2da771"/><stop offset=".4762" stop-color="#15cf74"/><stop offset=".8009" stop-color="#06e775"/><stop offset="1" stop-color="#00f076"/></linearGradient><rect fill="#000" height="32" rx="4" width="110"/><g filter="url(#a)"><path d="m4.463 3.39722c-.291.308-.463.786-.463 1.405v22.11598c0 .62.172 1.097.463 1.405l.074.072 12.389-12.389v-.146-.146l-12.389-12.38998z" fill="url(#c)"/><path d="m21.0587 20.1389-4.129-4.131v-.146-.146l4.13-4.13.093.053 4.893 2.78c1.397.794 1.397 2.093 0 2.888l-4.893 2.78z" fill="url(#d)"/><g filter="url(#b)"><path d="m21.1469 20.0834-4.224-4.224-12.46196 12.463c.46.488 1.221.548 2.078.062z" fill="url(#e)"/></g><path d="m21.1469 11.6361-14.60796-8.30002c-.857-.487-1.618-.426-2.078.062l12.46296 12.46302z" fill="url(#f)"/></g><g fill="#fff"><path d="m39.6055 9.78125v-.69922h-2.3125v.70703h1.4531v.125c-.0078.86324-.6406 1.44534-1.5625 1.44534-1.0586 0-1.7227-.8321-1.7227-2.18362 0-1.33203.6602-2.17187 1.7032-2.17187.7695 0 1.3047.3789 1.5234 1.07812h.8789c-.1914-1.13672-1.1211-1.85547-2.4023-1.85547-1.5782 0-2.5977 1.16016-2.5977 2.95313 0 1.81641 1.0078 2.95701 2.6055 2.95701 1.4765 0 2.4336-.9258 2.4336-2.35545zm3.8984 1.08205c-.1562.3437-.5039.5312-1.0117.5312-.6719 0-1.1055-.4843-1.1328-1.2539v-.039h3.0039v-.2891c0-1.32812-.7149-2.13672-1.8985-2.13672-1.1992 0-1.9609.86328-1.9609 2.21094 0 1.35548.7461 2.19528 1.9649 2.19528.9726 0 1.6601-.4687 1.8437-1.2187zm-1.043-2.50392c.6211 0 1.0274.44921 1.0469 1.13671h-2.1484c.0468-.68359.4804-1.13671 1.1015-1.13671zm3.2071-1.67188v1.08203h-.6758v.67188h.6758v2.44139c0 .8164.3711 1.1445 1.3047 1.1445.164 0 .3203-.0195.457-.0429v-.668c-.1172.0117-.1914.0195-.3203.0195-.418 0-.6016-.1992-.6016-.6562v-2.23829h.9219v-.67188h-.9219v-1.08203zm5.3711.3125c.2929 0 .5312-.23828.5312-.52734 0-.29297-.2383-.53125-.5312-.53125-.293 0-.5313.23828-.5313.53125 0 .28906.2383.52734.5313.52734zm-.418 5h.8359v-4.24219h-.8359zm2.3672-5.3125v1.08203h-.6758v.67188h.6758v2.44139c0 .8164.3711 1.1445 1.3047 1.1445.164 0 .3203-.0195.457-.0429v-.668c-.1172.0117-.1914.0195-.3203.0195-.418 0-.6016-.1992-.6016-.6562v-2.23829h.9219v-.67188h-.9219v-1.08203zm7.4375-.46094c-1.6172 0-2.6328 1.13672-2.6328 2.95313 0 1.81251.9922 2.95701 2.6328 2.95701 1.6289 0 2.6289-1.1484 2.6289-2.95701 0-1.8125-1.0078-2.95313-2.6289-2.95313zm0 .77344c1.0664 0 1.7344.84375 1.7344 2.17969 0 1.32421-.6641 2.18361-1.7344 2.18361-1.086 0-1.7383-.8594-1.7383-2.18361 0-1.33594.6719-2.17969 1.7383-2.17969zm3.7187 5h.8399v-2.48828c0-.6836.3945-1.10547 1.0156-1.10547s.918.34375.918 1.04687v2.54688h.8398v-2.74609c0-1.01172-.5234-1.57813-1.4726-1.57813-.6407 0-1.0625.28516-1.2696.75391h-.0625v-.67188h-.8086z"/><path d="m42.5449 21.5664v-1.0723h-3.5508v1.2891h1.834l-.0058.1582c-.0352 1.0547-.8379 1.7637-1.9981 1.7637-1.3945 0-2.2734-1.1192-2.2734-2.959 0-1.8047.8379-2.9121 2.2031-2.9121.9844 0 1.6934.5039 1.957 1.3887h1.7579c-.2461-1.752-1.7168-2.8946-3.7149-2.8946-2.4609 0-4.0137 1.7168-4.0137 4.4356 0 2.7597 1.541 4.4531 4.0547 4.4531 2.3086 0 3.75-1.4063 3.75-3.6504zm4.3946 3.5684c1.9863 0 3.1816-1.2539 3.1816-3.3633 0-2.0918-1.2129-3.3633-3.1816-3.3633-1.9688 0-3.1817 1.2773-3.1817 3.3633 0 2.1035 1.1953 3.3633 3.1817 3.3633zm0-1.3477c-.9141 0-1.4297-.7383-1.4297-2.0156 0-1.2656.5214-2.0098 1.4297-2.0098.9023 0 1.4296.7442 1.4296 2.0098 0 1.2773-.5214 2.0156-1.4296 2.0156zm7.4414 1.3477c1.9863 0 3.1816-1.2539 3.1816-3.3633 0-2.0918-1.2129-3.3633-3.1816-3.3633-1.9688 0-3.1817 1.2773-3.1817 3.3633 0 2.1035 1.1953 3.3633 3.1817 3.3633zm0-1.3477c-.9141 0-1.4297-.7383-1.4297-2.0156 0-1.2656.5215-2.0098 1.4297-2.0098.9023 0 1.4296.7442 1.4296 2.0098 0 1.2773-.5214 2.0156-1.4296 2.0156zm7.4238 3.6563c1.9512 0 3.1875-.9493 3.1875-2.4551v-6.4395h-1.6524v1.0313h-.1054c-.3457-.7031-1.0899-1.1367-1.9629-1.1367-1.6406 0-2.6485 1.2773-2.6485 3.2754 0 1.9335 1.002 3.1874 2.6133 3.1874.9082 0 1.5879-.3691 1.9453-1.0488h.1055v1.2012c0 .7441-.5332 1.1777-1.4473 1.1777-.7382 0-1.2187-.2578-1.3066-.6679h-1.6875c.1055 1.1308 1.2422 1.875 2.959 1.875zm.0234-3.8438c-.9258 0-1.4531-.7266-1.4531-1.8867 0-1.1602.5332-1.8867 1.4531-1.8867s1.4766.7265 1.4766 1.8867c0 1.1601-.5508 1.8867-1.4766 1.8867zm4.9336 1.4004h1.7051v-8.918h-1.7051zm7.6582-1.8223c-.1816.4395-.6445.6856-1.3183.6856-.8907 0-1.4532-.6153-1.4766-1.5996v-.0879h4.4355v-.5098c0-2.039-1.125-3.2578-3.0293-3.2578-1.9218 0-3.1054 1.3008-3.1054 3.3984 0 2.086 1.1601 3.3282 3.1289 3.3282 1.582 0 2.7012-.7559 2.9531-1.9571zm-1.3828-3.498c.7969 0 1.3125.5508 1.3477 1.4355h-2.7539c.0586-.8672.6152-1.4355 1.4062-1.4355zm7.6875-3.1348v8.4551h1.7695v-2.666h1.67c1.7812 0 3.0175-1.1602 3.0175-2.8828 0-1.7461-1.1894-2.9063-2.9296-2.9063zm1.7695 1.4063h1.2891c1.0195 0 1.5996.5215 1.5996 1.5058 0 .961-.5918 1.4883-1.6055 1.4883h-1.2832zm6.2051 7.0488h1.7051v-8.918h-1.7051zm5.25.0996c.8379 0 1.541-.3574 1.875-.9551h.1055v.8555h1.6523v-4.4062c0-1.377-.9668-2.1856-2.6777-2.1856-1.6231 0-2.7188.7441-2.8301 1.9277h1.5703c.1407-.4043.5508-.6211 1.166-.6211.7032 0 1.0899.3223 1.0899.879v.5332l-1.5645.0937c-1.6054.0938-2.5019.7734-2.5019 1.9395 0 1.1777.873 1.9394 2.1152 1.9394zm.5625-1.248c-.5918 0-1.0078-.2989-1.0078-.7969 0-.4746.3574-.75 1.0899-.7969l1.3066-.0879v.4805c0 .6797-.5977 1.2012-1.3887 1.2012zm5.3731 3.4922c1.6112 0 2.4022-.5743 2.9532-2.2208l2.226-6.5742h-1.804l-1.36 4.9219h-.105l-1.359-4.9219h-1.8813l2.2673 6.4864-.058.246c-.141.5215-.504.7325-1.1429.7325-.0703 0-.3281-.0059-.3867-.0176v1.3301c.0703.0117.5859.0176.6504.0176z"/></g></svg>