<svg xmlns="http://www.w3.org/2000/svg" xmlns:xlink="http://www.w3.org/1999/xlink" fill="none" height="48" viewBox="0 0 48 48" width="48"><clipPath id="a"><path d="m0 0h48v48h-48z"/></clipPath><g clip-path="url(#a)" fill="#f9a825"><path d="m23.4464 14.133c-2.4693.0028-4.8366.9849-6.5826 2.7309s-2.7282 4.1134-2.731 6.5826c-.0059 2.0844.6965 4.1091 1.992 5.742.2565.327.528.6405.813.972l.0151.018c.9379.9326 1.6608 2.0588 2.1179 3.3.0724.4108.1001.8282.0826 1.245v.711c0 .3127.1242.6126.3453.8337s.521.3453.8336.3453h6.1741c.3126 0 .6125-.1242.8336-.3453s.3454-.521.3454-.8337v-.72c-.0174-.3858.0097-.7724.0809-1.152.5013-1.2934 1.2619-2.4705 2.2351-3.459l.039-.045c.258-.3.5009-.588.7229-.87 1.2973-1.6334 2.0008-3.6592 1.9951-5.745-.0036-2.4685-.9859-4.8348-2.7315-6.5801s-4.1121-2.7272-6.5805-2.7304zm5.4659 13.6005c-.1935.2475-.423.516-.666.801l-.048.0555c-1.2059 1.2361-2.1274 2.7207-2.6999 4.35-.1092.4315-.1636.8749-.162 1.32h-3.8251c.0043-.47-.0506-.9387-.1634-1.395-.5419-1.5857-1.4334-3.0293-2.6086-4.224l-.0164-.018c-.2685-.3105-.5205-.6-.75-.891-.9672-1.2181-1.4919-2.7286-1.488-4.284-.0136-.9219.1563-1.8373.4997-2.693.3435-.8556.8536-1.6345 1.5007-2.2912.6472-.6567 1.4184-1.1782 2.269-1.5342.8505-.3559 1.7633-.5392 2.6853-.5392s1.8348.1833 2.6853.5392c.8506.356 1.6218.8775 2.269 1.5342.6471.6567 1.1572 1.4356 1.5007 2.2912.3434.8557.5133 1.7711.4998 2.693.0059 1.5552-.5166 3.0662-1.4821 4.2855z"/><path d="m26.5063 36.9525h-6.171c-.3127 0-.6126.1242-.8337.3453s-.3454.521-.3454.8337.1243.6126.3454.8337.521.3453.8337.3453h6.174c.3126 0 .6125-.1242.8336-.3453s.3454-.521.3454-.8337-.1243-.6126-.3454-.8337-.521-.3453-.8336-.3453z"/><path d="m24.9652 39.642h-3.087c-.3127 0-.6126.1242-.8337.3453s-.3453.521-.3453.8337.1242.6126.3453.8337.521.3453.8337.3453h3.087c.3127 0 .6126-.1242.8337-.3453s.3453-.521.3453-.8337-.1242-.6126-.3453-.8337-.521-.3453-.8337-.3453z"/><path d="m39.7142 22.2675h-4.0665c-.3126 0-.6125.1242-.8336.3453s-.3453.521-.3453.8337.1242.6126.3453.8337.521.3453.8336.3453h4.0665c.3127 0 .6126-.1242.8337-.3453s.3454-.521.3454-.8337-.1243-.6126-.3454-.8337-.521-.3453-.8337-.3453z"/><path d="m12.4212 23.4465c0-.3127-.1242-.6126-.3453-.8337s-.521-.3453-.8337-.3453h-4.07101c-.31269 0-.61258.1242-.83368.3453-.22111.2211-.34532.521-.34532.8337s.12421.6126.34532.8337c.2211.2211.52099.3453.83368.3453h4.07401c.3122-.0008.6113-.1253.8317-.3464.2205-.221.3443-.5204.3443-.8326z"/><path d="m23.4524 12.426c.3127 0 .6126-.1242.8337-.3453s.3453-.521.3453-.8337v-4.068c0-.31269-.1242-.61257-.3453-.83368-.2211-.2211-.521-.34532-.8337-.34532-.3126 0-.6125.12422-.8336.34532-.2211.22111-.3454.52099-.3454.83368v4.071c.0008.3122.1254.6113.3464.8317.221.2205.5205.3443.8326.3443z"/><path d="m32.9053 31.2375c-.109-.1116-.239-.2004-.3826-.2614-.1435-.061-.2977-.0929-.4537-.0938-.1559-.001-.3105.029-.4548.0882s-.2754.1465-.3857.2567-.1977.2413-.257.3855c-.0594.1442-.0895.2988-.0887.4547.0008.156.0326.3102.0934.4538.0609.1436.1496.2737.2611.3828l2.8755 2.877c.2218.2171.5203.3379.8307.3362.3103-.0016.6075-.1255.8271-.3449.2196-.2193.3438-.5164.3457-.8268s-.1187-.6089-.3355-.831z"/><path d="m13.9839 15.6525c.2218.217.5203.3379.8307.3362.3103-.0016.6075-.1255.8271-.3449s.3438-.5165.3457-.8268c.0019-.3104-.1187-.609-.3355-.831l-2.8755-2.8755c-.109-.1116-.239-.2004-.3826-.2614-.1435-.061-.2977-.0929-.4537-.0938-.1559-.001-.3105.029-.4548.0882s-.2754.1465-.3857.2567-.1977.2412-.257.3855c-.0594.1442-.0895.2988-.0887.4547.0008.156.0326.3102.0934.4538.0609.1436.1496.2737.2611.3828z"/><path d="m13.9845 31.236-2.8755 2.877c-.2169.222-.3374.5206-.3355.831s.1261.6075.3456.8268c.2196.2194.5168.3433.8272.3449.3103.0017.6088-.1191.8307-.3362l2.8755-2.877c.2168-.222.3374-.5206.3355-.831s-.1261-.6075-.3457-.8268c-.2196-.2194-.5168-.3433-.8271-.345-.3104-.0016-.6089.1193-.8307.3363z"/><path d="m32.0742 15.999c.1549.0003.3083-.0301.4514-.0893s.2731-.1461.3826-.2557l2.8755-2.8755c.2168-.222.3374-.5206.3355-.831-.0019-.3103-.1261-.6074-.3457-.8268-.2195-.2194-.5167-.3433-.8271-.3449-.3104-.0017-.6089.1192-.8307.3362l-2.8755 2.8755c-.165.1649-.2774.3751-.323.6038-.0455.2288-.0222.466.0671.6815s.2405.3997.4345.5292c.194.1296.4221.1987.6554.1985z"/></g></svg>