<svg xmlns="http://www.w3.org/2000/svg" fill="none" height="48" viewBox="0 0 48 48" width="48"><path d="m33.4776 15.904c-.0439.4352-.1878.8544-.4204 1.2248s-.5477.682-.9207.9105c-.2138.176-.6138.496-.6124.6152-.0003.1125-.0231.2238-.0669.3274s-.1077.1975-.1881.2761c-.0804.0787-.1757.1405-.2802.182-.1046.0415-.2163.0618-.3288.0596-.1119.0029-.2232-.0163-.3276-.0565-.1045-.0401-.2-.1005-.281-.1777-.0811-.0771-.1462-.1695-.1915-.2719-.0453-.1023-.07-.2125-.0726-.3244.0409-.3952.174-.7753.3885-1.1098.2144-.3344.5043-.6139.8464-.816.4364-.3564.7185-.6066.7185-.8349 0-.2288-.0908-.4482-.2526-.61-.1617-.1617-.3811-.2526-.6099-.2526s-.4482.0909-.6099.2526c-.1618.1618-.2526.3812-.2526.61 0 .2314-.092.4534-.2557.6171-.1636.1636-.3856.2556-.6171.2556-.2314 0-.4534-.092-.6171-.2556-.1637-.1637-.2556-.3857-.2556-.6171.0226-.6759.3069-1.3165.793-1.7866s1.1359-.7329 1.8121-.7329 1.326.2628 1.8121.7329c.486.4701.7704 1.1107.793 1.7866zm-2.8015 4.3796c-.1121-.0009-.2232.0204-.327.0628-.1037.0424-.198.105-.2773.1842-.0794.0792-.1421.1734-.1847.2771-.0426.1036-.0641.2148-.0633.3268-.0006.1119.0211.2227.0638.326.0427.1034.1055.1972.1849.276.0793.0788.1735.141.2772.183.1036.042.2146.0629.3264.0616.2261 0 .4429-.0898.6027-.2497.1599-.1598.2497-.3766.2497-.6027 0-.226-.0898-.4428-.2497-.6027-.1598-.1598-.3766-.2496-.6027-.2496zm-17.5651 5.9244c-.1146-.0047-.229.0137-.3362.0543-.1073.0406-.2053.1025-.2881.1819-.0827.0794-.1486.1747-.1936.2802-.045.1056-.0682.2191-.0682.3338s.0232.2282.0682.3337.1109.2009.1936.2803c.0828.0794.1808.1412.2881.1818.1072.0406.2216.0591.3362.0544h.0728c.1146.0047.2289-.0138.3362-.0544s.2053-.1024.288-.1818c.0828-.0794.1487-.1748.1937-.2803.0449-.1055.0681-.219.0681-.3337s-.0232-.2282-.0681-.3338c-.045-.1055-.1109-.2008-.1937-.2802-.0827-.0794-.1807-.1413-.288-.1819s-.2216-.059-.3362-.0543zm3.0284 0c-.1146-.0047-.229.0137-.3363.0543s-.2052.1025-.288.1819-.1486.1747-.1936.2802c-.045.1056-.0682.2191-.0682.3338s.0232.2282.0682.3337.1108.2009.1936.2803.1807.1412.288.1818.2217.0591.3363.0544h.0727c.1146.0047.229-.0138.3363-.0544s.2052-.1024.288-.1818.1486-.1748.1936-.2803.0682-.219.0682-.3337-.0232-.2282-.0682-.3338c-.045-.1055-.1108-.2008-.1936-.2802s-.1807-.1413-.288-.1819-.2217-.059-.3363-.0543zm25.6-13.5826v9.5724c-.0046.5445-.1165 1.0828-.3294 1.5839-.2129.5012-.5226.9554-.9113 1.3367s-.8489.6822-1.3541.8854c-.5051.2032-1.0455.3047-1.5899.2987h-11.3019c-.221 0-.4029 0-.5556 0s-.3389 0-.4087 0c-.0727.0466-.2517.2066-.4233.3622l-.2284.2037-3.2 2.8436c-.1284.1109-.2855.1833-.4532.209-.1678.0258-.3393.0037-.4951-.0636-.155-.0642-.2883-.1718-.3837-.3098-.0955-.138-.1491-.3006-.1545-.4683v-9.0124h-9.1316c-.6486-.004-1.27285.247-1.73811.699-.46527.4519-.73433 1.0685-.7492 1.717v9.5724c.01525.6444.28587 1.2564.75232 1.7013s1.09049.6863 1.73499.671h12.624c.2167.0061.4238.0915.5818.24l2.6051 2.3448v-8.083c0-.2314.0919-.4534.2556-.6171.1637-.1636.3856-.2556.6171-.2556s.4534.092.6171.2556c.1637.1637.2556.3857.2556.6171v10.0102c.0003.1653-.0483.3269-.1397.4646-.0913.1377-.2214.2453-.3737.3092-.109.0465-.2263.0698-.3448.0684-.2154-.0043-.4221-.0865-.5818-.2313l-3.8211-3.421h-12.2952c-1.10149.0206-2.16607-.397-2.95978-1.1609-.79371-.764-1.25158-1.8119-1.27298-2.9133v-9.5709c.01914-1.1063.47483-2.1601 1.26771-2.9317.79289-.7716 1.85868-1.1985 2.96505-1.1876h9.1287v-5.7397c.0241-1.1042.4844-2.1541 1.2802-2.92.7959-.7659 1.8627-1.18556 2.9671-1.16723h13.3541c.5436-.00807 1.0835.09143 1.5885.29277s.9652.50055 1.3541.88042c.3889.37984.6989.83284.9121 1.33304.2132.5001.3253 1.0374.3301 1.581zm-1.7455 0c-.0016-.3175-.0664-.6316-.1904-.924s-.3049-.5572-.5321-.7791-.4962-.3965-.7914-.5136c-.2952-.1172-.6107-.1745-.9282-.1687h-13.3557c-.6479-.0137-1.2749.2294-1.7441.6764-.4693.4469-.7427 1.0613-.7606 1.709v14.5295l1.7454-1.5447c.0815-.0728.1717-.1455.2386-.1978.2415-.3016.5573-.5351.9164-.6776.359-.1426.749-.1893 1.1316-.1355h.5178 11.3018c.3186.0036.6347-.0558.9302-.1749.2954-.119.5644-.2954.7915-.5189.227-.2235.4075-.4897.5312-.7833.1236-.2936.188-.6087.1893-.9273v-9.5695z" fill="#f9a825" stroke="#f9a825" stroke-width=".5"/></svg>