<svg xmlns="http://www.w3.org/2000/svg" xmlns:xlink="http://www.w3.org/1999/xlink" fill="none" height="32" viewBox="0 0 32 32" width="32"><clipPath id="a"><path d="m0 0h32v32h-32z"/></clipPath><g clip-path="url(#a)" stroke="#f9a825" stroke-linecap="round" stroke-linejoin="round" stroke-width="1.5"><path d="m21.334 2.66602v5.33333"/><path d="m10.666 2.66602v5.33333"/><path d="m4 12h24"/><path d="m25.3333 5.33398h-18.66663c-.70725 0-1.38552.28096-1.88562.78105-.5001.5001-.78105 1.17838-.78105 1.88562v17.33335c0 .7072.28095 1.3855.78105 1.8856s1.17837.781 1.88562.781h18.66663c.7073 0 1.3856-.2809 1.8857-.781.5-.5001.781-1.1784.781-1.8856v-17.33335c0-.70724-.281-1.38552-.781-1.88562-.5001-.50009-1.1784-.78105-1.8857-.78105z"/><path d="m9.35153 16.9727c-.06587.0002-.13018.02-.18482.0568s-.09716.0889-.12219.1499c-.02502.0609-.03143.1279-.01842.1924.01301.0646.04486.1239.09153.1704.04667.0464.10607.0781.17069.0908.06463.0128.13158.0061.19241-.0192.06083-.0252.11281-.068.14938-.1228.03657-.0547.05609-.1191.05609-.185 0-.0439-.00867-.0873-.0255-.1279-.01684-.0405-.04151-.0773-.0726-.1083-.0311-.031-.068-.0555-.1086-.0722-.04059-.0166-.08408-.0251-.12797-.0249z"/><path d="m16.0175 16.9727c-.0658.0002-.1301.02-.1848.0568-.0546.0368-.0971.0889-.1222.1499-.025.0609-.0314.1279-.0184.1924.013.0646.0449.1239.0915.1704.0467.0464.1061.0781.1707.0908.0647.0128.1316.0061.1924-.0192.0609-.0252.1129-.068.1494-.1228.0366-.0547.0561-.1191.0561-.185 0-.0439-.0087-.0873-.0255-.1279-.0168-.0405-.0415-.0773-.0726-.1083s-.068-.0555-.1086-.0722c-.0406-.0166-.0841-.0251-.128-.0249z"/><path d="m22.6836 16.9727c-.0659.0002-.1302.02-.1849.0568-.0546.0368-.0971.0889-.1221.1499-.0251.0609-.0315.1279-.0185.1924.013.0646.0449.1239.0916.1704.0466.0464.106.0781.1707.0908.0646.0128.1315.0061.1924-.0192.0608-.0252.1128-.068.1493-.1228.0366-.0547.0561-.1191.0561-.185 0-.0439-.0086-.0873-.0255-.1279-.0168-.0405-.0415-.0773-.0726-.1083s-.068-.0555-.1086-.0722c-.0406-.0166-.0841-.0251-.1279-.0249"/><path d="m9.35153 22.3047c-.06587.0003-.13018.02-.18482.0568s-.09716.089-.12219.1499c-.02502.0609-.03143.1279-.01842.1925.01301.0645.04486.1238.09153.1703s.10607.0781.17069.0908c.06463.0128.13158.0061.19241-.0191.06083-.0253.11281-.068.14938-.1228s.05609-.1192.05609-.1851c0-.0439-.00867-.0873-.0255-.1278-.01684-.0406-.04151-.0774-.0726-.1084-.0311-.0309-.068-.0554-.1086-.0721-.04059-.0167-.08408-.0252-.12797-.025z"/><path d="m16.0175 22.3047c-.0658.0003-.1301.02-.1848.0568-.0546.0368-.0971.089-.1222.1499-.025.0609-.0314.1279-.0184.1925.013.0645.0449.1238.0915.1703.0467.0465.1061.0781.1707.0908.0647.0128.1316.0061.1924-.0191.0609-.0253.1129-.068.1494-.1228.0366-.0548.0561-.1192.0561-.1851 0-.0439-.0087-.0873-.0255-.1278-.0168-.0406-.0415-.0774-.0726-.1084-.0311-.0309-.068-.0554-.1086-.0721s-.0841-.0252-.128-.025z"/></g></svg>