<svg xmlns="http://www.w3.org/2000/svg" xmlns:xlink="http://www.w3.org/1999/xlink" fill="none" height="48" viewBox="0 0 48 48" width="48"><clipPath id="a"><path d="m0 0h48v48h-48z"/></clipPath><g clip-path="url(#a)" stroke="#f9a825" stroke-linecap="round" stroke-linejoin="round" stroke-width="3"><path d="m33.4941 12.3741c1.3868 1.3868 2.4868 3.0331 3.2373 4.845s1.1368 3.7538 1.1368 5.715-.3863 3.9031-1.1368 5.715-1.8505 3.4582-3.2373 4.845-3.0331 2.4868-4.845 3.2373-3.7538 1.1368-5.715 1.1368-3.9031-.3863-5.715-1.1368-3.4582-1.8505-4.845-3.2373c-2.80069-2.8007-4.3741-6.5992-4.3741-10.56s1.57341-7.7593 4.3741-10.56c2.8007-2.80069 6.5992-4.3741 10.56-4.3741s7.7593 1.57341 10.56 4.3741"/><path d="m15.8594 25.7812v-2"/><path d="m22.5 25.7812v-4"/><path d="m29.1406 25.7812v-6"/><path d="m40 40-6.5-6.5"/></g></svg>