<svg xmlns="http://www.w3.org/2000/svg" xmlns:xlink="http://www.w3.org/1999/xlink" fill="none" height="48" viewBox="0 0 48 48" width="48"><clipPath id="a"><path d="m0 0h48v48h-48z"/></clipPath><g clip-path="url(#a)" fill="#f9a825"><path d="m23.0629 30.5595h2.046c.2323-.0084.4591.0722.6341.2252.1751.153.2851.367.3079.5983.0161.2336-.0608.464-.214.641-.1531.1771-.3701.2864-.6035.304-.05.0027-.1.0027-.15 0h-3.6135c-.3517 0-.689.1397-.9376.3884-.2487.2487-.3884.5859-.3884.9376s.1397.689.3884.9377c.2486.2486.5859.3883.9376.3883h1.2855v.8085c.0116.3442.1564.6704.404.9097.2475.2394.5784.3732.9227.3732.3444 0 .6753-.1338.9228-.3732.2476-.2393.3924-.5655.404-.9097v-.837c.8846-.0757 1.7082-.4819 2.3068-1.1377.5985-.6557.9281-1.5129.923-2.4007-.0051-.8879-.3445-1.7412-.9506-2.39-.606-.6489-1.4343-1.0455-2.3197-1.1111l-.009-.018h-2.2605c-.2207-.0162-.4273-.1144-.5792-.2752-.152-.1608-.2384-.3726-.2421-.5938-.0038-.2213.0753-.4359.2217-.6018.1464-.1658.3496-.271.5696-.2947h3.549c.3517 0 .6889-.1397.9376-.3883.2487-.2487.3884-.586.3884-.9377s-.1397-.6889-.3884-.9376-.5859-.3884-.9376-.3884h-1.218v-.774c.006-.178-.0239-.3554-.0879-.5215-.064-.1662-.1607-.3178-.2845-.4459-.1238-.128-.2721-.2298-.4361-.2993-.1639-.0696-.3402-.1054-.5182-.1054-.1781 0-.3544.0358-.5184.1054-.1639.0695-.3122.1713-.436.2993-.1238.1281-.2205.2797-.2845.4459-.064.1661-.0939.3435-.0879.5215v.795c-.9045.0836-1.742.5124-2.3386 1.1974s-.9064 1.5734-.8651 2.4808.4306 1.764 1.087 2.3919c.6563.6279 1.5294.9788 2.4377.9799z"/><path d="m38.0897 26.196c-1.022-2.2527-2.3689-4.3435-3.9975-6.2055-1.4232-1.6667-3.0292-3.1682-4.788-4.476l3.6795-6.59998c.1365-.2471.1876-.5324.1453-.81152-.0423-.27913-.1756-.53643-.3793-.73197-.467-.48221-1.025-.86716-1.6416-1.1326-.6166-.26543-1.2796-.4061-1.9509-.41391-1.0754.05725-2.129.32588-3.1005.79052-.5188.25366-1.0766.41843-1.65.48747-.0821.01683-.1674.00466-.2415-.03447-1.4944-.61911-3.0829-.98074-4.698-1.06952-.9178.00994-1.8237.20996-2.6604.5874s-1.5862.92412-2.2011 1.60561c-.2163.21233-.351.4941-.3804.79582-.0293.30172.0485.60414.2199.85419l3.9165 5.73746c-1.7194 1.2914-3.2927 2.7667-4.692 4.3995-1.6266 1.8659-2.976 3.9564-4.00651 6.207-1.20785 2.6597-1.83475 5.5464-1.83897 8.4675.03825 1.9518.8456 3.8095 2.24648 5.1691 1.4009 1.3596 3.282 2.1111 5.234 2.0909h17.1225c1.9522.0213 3.8335-.7298 5.2342-2.0897s2.207-3.2184 2.2433-5.1703c.0024-2.9159-.6163-5.7989-1.815-8.457zm-17.4465-8.979h6.4785c1.8278 1.2847 3.4847 2.7969 4.9305 4.5 3.2339 3.5408 5.0626 8.1413 5.142 12.936-.0143 1.2181-.5031 2.3825-1.3624 3.2458-.8594.8633-2.0216 1.3574-3.2396 1.3772h-17.271c-1.2401.0129-2.4351-.4648-3.3246-1.3291-.8896-.8642-1.4015-2.0449-1.4244-3.2849.0812-4.8005 1.9129-9.4061 5.151-12.951 1.4475-1.696 3.1002-3.2056 4.92-4.494zm6.081-2.6505h-5.766l-3.6-5.24997c.6013-.45047 1.3322-.69458 2.0835-.69599 1.2968.08726 2.5694.3941 3.7635.90748.3943.13295.808.19937 1.224.19651h.012c.9376-.06177 1.8544-.30423 2.7-.71402.6347-.31303 1.3217-.50627 2.0265-.57.2965.00147.589.0686.8565.19651z"/></g></svg>