<svg xmlns="http://www.w3.org/2000/svg" xmlns:xlink="http://www.w3.org/1999/xlink" fill="none" height="48" viewBox="0 0 48 48" width="48"><clipPath id="a"><path d="m0 0h48v48h-48z"/></clipPath><g clip-path="url(#a)" fill="#f9a825"><path d="m41.6016 11.538c-.1266-.1267-.277-.2272-.4425-.2958s-.3429-.1039-.522-.1039-.3565.0353-.522.1039-.3159.1691-.4425.2958l-10.35 10.3125-2.9925-2.9925c-.2557-.2554-.6023-.3989-.9637-.3989-.3615 0-.7081.1435-.9638.3989l-12.1395 12.132c-.1325.1252-.2386.2757-.312.4427-.0733.1669-.1124.3468-.115.5291s.0314.3633.0999.5322c.0686.1689.1704.3224.2993.4513.1289.129.2824.2307.4513.2993s.3499.1026.5322.1.3623-.0418.5292-.1151c.1669-.0734.3174-.1794.4426-.312l11.172-11.172 2.991 2.9895c.2556.255.6019.3982.963.3982s.7074-.1432.963-.3982l11.3175-11.2725c.2552-.2549.3989-.6006.3997-.9613.0009-.3607-.1412-.707-.3952-.9632z"/><path d="m40.5915 37.5h-31.8645v-28.6365c0-.36162-.14365-.70844-.39936-.96414-.25571-.25571-.60252-.39936-.96414-.39936s-.70843.14365-.96414.39936c-.25571.2557-.39936.60252-.39936.96414v30c0 .3616.14365.7084.39936.9641s.60252.3994.96414.3994h33.228c.3616 0 .7084-.1437.9641-.3994s.3994-.6025.3994-.9641-.1437-.7084-.3994-.9641-.6025-.3994-.9641-.3994z"/><path d="m40.6374 11.091h-10.227c-.3617 0-.7085.1437-.9642.3994s-.3993.6025-.3993.9641.1436.7084.3993.9641.6025.3994.9642.3994h8.8635v8.8635c0 .1791.0353.3564.1038.5218s.169.3157.2956.4423c.1266.1267.2769.2271.4423.2956s.3427.1038.5218.1038c.179 0 .3563-.0353.5218-.1038.1654-.0685.3157-.1689.4423-.2956.1266-.1266.2271-.2769.2956-.4423s.1038-.3427.1038-.5218v-10.227c0-.3616-.1437-.7084-.3994-.9641s-.6025-.3994-.9641-.3994z"/></g></svg>