<svg xmlns="http://www.w3.org/2000/svg" fill="none" height="48" viewBox="0 0 48 48" width="48"><g fill="#f9a825"><path d="m18.149 27.088c.1559-.0019.3106.0269.4553.0848.1448.0579.2767.1437.3883.2526.1115.1088.2006.2386.262.3819s.094.2972.0959.4531c0 .1593.0633.3121.1759.4248.1127.1127.2655.1759.4248.1759s.3121-.0632.4248-.1759c.1126-.1127.1759-.2655.1759-.4248-.0064-.5235-.187-1.0299-.5134-1.4392-.3264-.4094-.7799-.6983-1.2888-.8212v-.6691c0-.1593-.0633-.3121-.1759-.4247-.1127-.1127-.2655-.176-.4248-.176s-.3121.0633-.4248.176c-.1126.1126-.1759.2654-.1759.4247v.6691c-.5596.1334-1.0505.4681-1.3791.9402-.3287.4722-.472 1.0488-.4027 1.6198.0828.5706.37 1.0916.8083 1.4662s.9977.5773 1.5742.5702c.2306.0057.4544.0794.6434.2117.1889.1323.3347.3174.4189.5322.0842.2147.1033.4495.0547.675s-.1626.4317-.3278.5927-.3743.2697-.601.3125c-.2266.0427-.4609.0177-.6734-.0721-.2125-.0897-.3938-.2402-.5212-.4325s-.1953-.4179-.195-.6486c0-.1593-.0633-.3121-.176-.4248-.1127-.1126-.2655-.1759-.4248-.1759s-.3121.0633-.4248.1759c-.1126.1127-.1759.2655-.1759.4248.0064.5235.1871 1.0299.5134 1.4393.3264.4093.7799.6982 1.2888.8211v.6691c0 .1593.0633.3121.1759.4248.1127.1126.2655.1759.4248.1759s.3121-.0633.4248-.1759c.1126-.1127.1759-.2655.1759-.4248v-.6604c.5612-.1319 1.0541-.4661 1.3842-.9387.3301-.4727.4743-1.0504.4049-1.6227-.083-.5719-.3713-1.0939-.8111-1.4687-.4398-.3747-1.001-.5765-1.5787-.5677-.1573.0055-.3142-.0207-.4612-.077-.1469-.0564-.2811-.1418-.3943-.2512-.1133-.1093-.2034-.2404-.2649-.3853s-.0932-.3007-.0932-.4581c0-.1575.0317-.3133.0932-.4582s.1516-.276.2649-.3853c.1132-.1093.2474-.1948.3943-.2511.147-.0564.3039-.0826.4612-.0771z"/><path d="m19.9588 21.2305h-3.6116c-.1553 0-.3042.0617-.414.1715s-.1715.2587-.1715.414.0617.3042.1715.414.2587.1715.414.1715h3.6116c.1553 0 .3042-.0617.414-.1715s.1715-.2587.1715-.414-.0617-.3042-.1715-.414-.2587-.1715-.414-.1715z"/><path d="m19.9595 37.632h-3.6116c-.1555 0-.3046.0618-.4145.1717s-.1717.2591-.1717.4145c0 .1555.0618.3046.1717.4145s.259.1717.4145.1717h3.6116c.1555 0 .3046-.0618.4145-.1717.11-.1099.1717-.259.1717-.4145 0-.1554-.0617-.3046-.1717-.4145-.1099-.1099-.259-.1717-.4145-.1717z"/><path d="m39.0534 29.1389-8.8203-14.8931c.542-.5254 1.0222-1.111 1.4312-1.7454.473-.5859.7711-1.2933.8601-2.041.089-.74772-.0346-1.50535-.3568-2.18592-1.3469-2.27055-5.6-2.25019-9.6873.048-.5417.30925-1.0634.65223-1.5621 1.0269l-.4844-.53672c-.29-.31672-.6427-.56964-1.0357-.74267-.3931-.17303-.8178-.26238-1.2472-.26238s-.8542.08935-1.2472.26238-.7457.42595-1.0357.74267l-6.56875 7.25674c-.49154.5367-.76537 1.2373-.768 1.9651v18.4276c.01955 1.4158.59991 2.7661 1.61375 3.7546 1.0138.9885 2.3784 1.5345 3.7942 1.5181h8.4102c1.4159.0164 2.7804-.5296 3.7943-1.5181 1.0138-.9885 1.5942-2.3388 1.6137-3.7546v-18.4276c-.0018-.5658-.1686-1.1188-.48-1.5913.7164-.4042 1.3976-.8679 2.0364-1.3862l8.688 14.6691c.2755.4668.4543.9841.526 1.5213.0716.5373.0345 1.0834-.109 1.606-.1436.5227-.3907 1.0111-.7267 1.4364-.3359.4252-.754.7787-1.2292 1.0392l-7.2771 4.1004c-.3204.1788-.6626.3153-1.0182.4058-.0756.0181-.1468.0512-.2094.0974-.0627.0461-.1154.1043-.1551.1711-.0398.0669-.0657.141-.0763.2181-.0106.077-.0056.1554.0146.2305.0435.1518.1448.2804.2822.3583.1374.0778.2998.0985.4524.0577.4571-.1175.8971-.2935 1.3091-.5236l7.2843-4.1004c.6117-.3345 1.1498-.7885 1.5825-1.3351.4326-.5466.751-1.1746.936-1.8467.1851-.6721.2332-1.3745.1414-2.0656-.0919-.691-.3217-1.3565-.6759-1.957zm-12.4858 7.3222c-.0076.5463-.1227 1.0857-.3388 1.5874s-.529.956-.9207 1.3367c-.3918.3808-.8547.6807-1.3623.8825-.5077.2018-1.0501.3017-1.5964.2938h-8.4058c-1.1009.0124-2.1619-.4123-2.9502-1.1809-.7883-.7687-1.23954-1.8186-1.25488-2.9195v-18.4276c.00058-.4401.16494-.8643.46108-1.1898l6.5687-7.25532c.1754-.19191.3889-.34519.6268-.45005.2379-.10487.4951-.15903.7551-.15903s.5171.05416.755.15903c.2379.10486.4514.25814.6268.45005l5.8603 6.47422c-1.3434.6168-2.8053.933-4.2836.9265.0272-.1469.0428-.2957.0466-.4451-.0112-.7865-.3338-1.5364-.8972-2.0854-.5633-.5489-1.3214-.8519-2.1079-.8426-.0662.0019-.1315.0146-.1935.0378-.1445-.0185-.2907.0168-.4109.0991-.1202.0824-.2059.206-.2407.3475-.2147.8005-.1104 1.653.2909 2.3782.4027.6473 1.0207 1.132 1.7454 1.3687-.2608.2298-.5816.3806-.925.4347s-.6951.0093-1.0139-.1293c-.3161-.1339-.5858-.3581-.7752-.6445s-.2901-.6223-.2895-.9656c0-.1594-.0633-.3122-.176-.4248-.1126-.1127-.2654-.176-.4247-.176-.1594 0-.3122.0633-.4248.176-.1127.1126-.176.2654-.176.4248.0045.6386.217 1.2583.6055 1.7652s.9317.8732 1.5473 1.0435c.619.1799 1.2792.1583 1.8851-.0619s1.126-.6274 1.4851-1.1628c.2366.0242.4741.0368.7127.0378 1.6739-.0487 3.3184-.4522 4.8247-1.184.2282.3027.3527.671.3549 1.0502zm-6.6153-19.9171c-.0022.0859-.011.1715-.0261.256-.5264-.1316-.9848-.4547-1.2859-.9062-.185-.3283-.2647-.7056-.2283-1.0807.4218.0555.8095.2609 1.0924.5787.2828.3179.4418.7268.4479 1.1522zm6.7331-1.1229c-.0596.0335-.1192.0626-.1803.096l-4.7884-5.296c.4355-.32046.8896-.6148 1.36-.88144 3.3891-1.90691 7.0735-2.12218 8.0509-.46837.2043.50026.2671 1.04703.1817 1.58061-.0854.5335-.3158 1.0334-.6661 1.4448-.3006.466-.6465.9011-1.0327 1.299v-.0102c-.3758-.6311-.9682-1.1041-1.6669-1.3309l-2.3607-.7753c-.1484-.0454-.3086-.0318-.4472.0378-.1387.0696-.2452.1899-.2975.336-.0491.1457-.0386.3048.0293.4427.0678.1379.1875.2433.3328.2933l2.3535.7709c.4229.1376.7816.4239 1.0095.8058l.1527.2589c-.6342.5287-1.3159.9976-2.0364 1.4008z" stroke="#f9a825" stroke-width=".5"/><path d="m29.0461 30.1978c.0822.1352.2138.233.3669.2729s.3157.0187.4534-.0591l4.1629-2.3433c.091-.0503.1668-.124.2196-.2136.0528-.0895.0806-.1915.0806-.2955 0-.1039-.0278-.2059-.0806-.2954s-.1286-.1633-.2196-.2136c-.0921-.052-.196-.0794-.3018-.0794-.1057 0-.2097.0274-.3018.0794l-4.1629 2.3433c-.0678.0378-.1272.0889-.175.1501-.0477.0612-.0827.1314-.1029.2063-.0202.075-.0252.1532-.0147.2302.0105.0769.0363.1509.0759.2177z"/><path d="m29.8051 33.8254c.082.1354.2135.2336.3666.2738s.3159.0192.4538-.0585l5.2029-2.9294c.0674-.0377.1267-.0884.1743-.1491.0477-.0608.0827-.1304.1032-.2049.0204-.0744.0258-.1522.0159-.2288s-.035-.1504-.0737-.2172c-.082-.1354-.2135-.2336-.3666-.2738-.1532-.0401-.3159-.0192-.4538.0585l-5.2029 2.9295c-.0675.0376-.1267.0883-.1744.1491-.0476.0607-.0826.1304-.1031.2048-.0204.0745-.0258.1523-.0159.2289.0099.0765.035.1504.0737.2171z"/></g></svg>