<svg xmlns="http://www.w3.org/2000/svg" fill="none" height="48" viewBox="0 0 48 48" width="48"><g fill="#0277bd"><g stroke="#0277bd" stroke-width=".4"><path d="m15.2368 41.4096h-7.96656c-.19288 0-.37787-.0766-.51426-.213s-.21301-.3214-.21301-.5143v-18.1105c.00026-.137.03916-.271.11224-.3868s.17736-.2086.30085-.2678c2.65891-1.2674 5.31494-2.5377 7.96804-3.8109.1105-.0523.2324-.076.3545-.0687s.2404.0452.3439.1103.189.1553.2484.2622c.0595.1069.091.227.0917.3493v21.9258c-.0008.1921-.0775.3762-.2135.5119s-.3202.2121-.5123.2125zm-7.23929-1.4488h6.51489v-20.045c-2.174 1.0395-4.3457 2.077-6.51489 3.1127z"/><path d="m40.7251 41.4095h-7.9666c-.1929 0-.3778-.0766-.5142-.213s-.2131-.3214-.2131-.5142v-21.9215c.0008-.1223.0323-.2424.0917-.3493.0595-.1069.1449-.1971.2485-.2622.1035-.0651.2218-.103.3438-.1103.1221-.0073.2441.0164.3546.0687 2.6579 1.2752 5.3139 2.5455 7.968 3.8109.1235.0592.2278.152.3008.2678.0731.1158.112.2498.1123.3868v18.112c-.0008.1921-.0775.3761-.2135.5118s-.3202.2121-.5123.2125zm-7.2451-1.4545h6.5207v-16.9266c-2.175-1.0375-4.3467-2.0751-6.5149-3.1127z"/><path d="m32.6916 41.411h-17.3862c-.0929.0029-.1854-.0126-.2723-.0456s-.1664-.0828-.234-.1466-.1219-.1403-.1598-.2251c-.038-.0849-.0587-.1764-.0612-.2693v-28.8393h1.4546v28.1542h15.9345v-28.1542h1.4546v28.8408c-.0027.093-.0237.1846-.0619.2695-.0381.0848-.0927.1613-.1606.225s-.1477.1133-.2348.146c-.0872.0327-.1799.0478-.2729.0446z"/><path d="m32.6916 41.4546h-17.3862c-.1929 0-.3779-.0766-.5142-.213-.1364-.1364-.2131-.3214-.2131-.5142-.0013-.1972.0736-.3872.2092-.5304.1355-.1431.3212-.2283.5181-.2376h17.3862c.1929 0 .3779.0766.5143.213.1363.1364.213.3213.213.5142v.0437c-.0008.1923-.0778.3766-.2141.5123-.1363.1358-.3208.212-.5132.212z"/><path d="m34.1413 12.6502h-20.2851c-.1929 0-.3779-.0766-.5143-.213s-.213-.3214-.213-.5142v-4.65459c0-.19288.0766-.37787.213-.51426s.3214-.21301.5143-.21301h20.2851c.1929 0 .3778.07662.5142.21301s.213.32138.213.51426v4.65459c0 .1928-.0766.3778-.213.5142s-.3213.213-.5142.213zm-19.5578-1.4487h18.832v-3.2h-18.832z"/><path d="m28.3423 40.6866h-1.4546v-12.3171c-.0023-.1899-.0787-.3713-.213-.5056-.1342-.1343-.3157-.2107-.5055-.213h-4.3637c-.1898.0023-.3713.0787-.5056.213-.1342.1343-.2107.3157-.2129.5056v12.3171h-1.4386v-12.3171c.0008-.5746.2294-1.1254.6357-1.5317.4062-.4062.957-.6348 1.5316-.6356h4.3636c.5746.0008 1.1254.2294 1.5317.6356.4063.4063.6348.9571.6356 1.5317z"/></g><path d="m25.1771 21.1739h-2.4087c-.241 0-.4364.1954-.4364.4364v2.2472c0 .241.1954.4364.4364.4364h2.4087c.241 0 .4364-.1954.4364-.4364v-2.2472c0-.241-.1954-.4364-.4364-.4364z"/><path d="m25.1771 14.9237h-2.4087c-.241 0-.4364.1954-.4364.4364v2.2472c0 .241.1954.4364.4364.4364h2.4087c.241 0 .4364-.1954.4364-.4364v-2.2472c0-.241-.1954-.4364-.4364-.4364z"/></g></svg>