<svg xmlns="http://www.w3.org/2000/svg" height="32" viewBox="0 0 32 32" width="32"><g fill="#0277bd"><path d="m0 0h32v32h-32z" opacity="0"/><path d="m406.662 455.972h1.364a.609.609 0 0 1 .628.549.591.591 0 0 1 -.545.63.929.929 0 0 1 -.1 0h-2.409a.884.884 0 0 0 0 1.768h.857v.539a.885.885 0 0 0 1.769 0v-.558a2.354 2.354 0 0 0 -.027-4.693l-.006-.012h-1.507a.591.591 0 0 1 -.02-1.177h2.366a.884.884 0 1 0 0-1.768h-.812v-.516a.885.885 0 1 0 -1.769 0v.53a2.355 2.355 0 0 0 .214 4.7z" transform="translate(-391.288 -435.599)"/><path d="m420.665 458.137a16.871 16.871 0 0 0 -2.665-4.137 19.489 19.489 0 0 0 -3.192-2.984l2.453-4.4a.854.854 0 0 0 -.156-1.029 3.389 3.389 0 0 0 -2.395-1.031 5.464 5.464 0 0 0 -2.067.527 3.441 3.441 0 0 1 -1.1.325.241.241 0 0 1 -.161-.023 9.553 9.553 0 0 0 -3.132-.713 4.43 4.43 0 0 0 -3.241 1.462.86.86 0 0 0 -.107 1.1l2.611 3.825a19.7 19.7 0 0 0 -3.128 2.933 17.182 17.182 0 0 0 -2.671 4.138 13.7 13.7 0 0 0 -1.226 5.645 4.937 4.937 0 0 0 4.987 4.84h11.415a4.932 4.932 0 0 0 4.985-4.84 13.687 13.687 0 0 0 -1.21-5.638zm-11.631-5.986h4.319a17.547 17.547 0 0 1 3.287 3 13.11 13.11 0 0 1 3.428 8.624 3.119 3.119 0 0 1 -3.068 3.082h-11.514a3.134 3.134 0 0 1 -3.166-3.076 13.131 13.131 0 0 1 3.434-8.634 17.941 17.941 0 0 1 3.28-2.996zm4.054-1.767h-3.844l-2.4-3.5a2.324 2.324 0 0 1 1.389-.464 7.653 7.653 0 0 1 2.509.605 2.5 2.5 0 0 0 .816.131h.008a4.86 4.86 0 0 0 1.8-.476 3.835 3.835 0 0 1 1.351-.38 1.339 1.339 0 0 1 .571.131z" transform="translate(-395.272 -440.673)"/></g></svg>