<svg xmlns="http://www.w3.org/2000/svg" fill="none" height="48" viewBox="0 0 48 48" width="48"><g fill="#0277bd" stroke="#0277bd" stroke-width=".3"><path d="m23.9975 41.4546c3.4522 0 6.8269-1.0237 9.6972-2.9417 2.8704-1.9179 5.1076-4.6439 6.4287-7.8333s1.6668-6.6989.9933-10.0848c-.6735-3.3858-2.3359-6.4959-4.777-8.937-2.441-2.44106-5.5511-4.10345-8.937-4.77694-3.3858-.67348-6.8954-.32783-10.0848.99327-3.1894 1.32109-5.9154 3.55827-7.83331 6.42867-1.91793 2.8704-2.94162 6.245-2.94162 9.6972.00539 4.6276 1.84607 9.0641 5.11823 12.3363 3.2722 3.2722 7.7087 5.1129 12.3363 5.1183zm0-33.35276c3.1444 0 6.2181.93242 8.8326 2.67936 2.6144 1.7469 4.6521 4.2298 5.8554 7.1349 1.2033 2.905 1.5182 6.1016.9047 9.1855-.6134 3.084-2.1276 5.9167-4.351 8.1401s-5.0562 3.7376-8.1401 4.351c-3.0839.6135-6.2805.2986-9.1856-.9047-2.905-1.2033-5.3879-3.241-7.1348-5.8554-1.74696-2.6145-2.67937-5.6882-2.67937-8.8326.00462-4.215 1.68109-8.2561 4.66157-11.2366 2.9805-2.98047 7.0216-4.65694 11.2366-4.66156z"/><path d="m19.6959 22.432c.6375 0 1.2607-.189 1.7908-.5432.53-.3542.9432-.8576 1.1872-1.4466.2439-.5889.3077-1.237.1834-1.8623-.1244-.6252-.4314-1.1996-.8822-1.6504-.4508-.4507-1.0251-.7577-1.6503-.8821-.6253-.1244-1.2734-.0605-1.8624.1834-.5889.244-1.0923.6571-1.4465 1.1872s-.5432 1.1532-.5432 1.7907c0 .8549.3396 1.6748.944 2.2792.6045.6045 1.4244.9441 2.2792.9441zm0-4.8902c.3297 0 .652.0978.9261.281.2741.1831.4878.4435.614.748.1261.3046.1591.6398.0948.9631-.0643.3234-.2231.6204-.4562.8535-.2331.2332-.5301.3919-.8535.4562-.3233.0643-.6585.0313-.9631-.0948-.3045-.1262-.5649-.3399-.7481-.614-.1831-.2741-.2809-.5964-.2809-.9261 0-.442.1757-.866.4883-1.1786s.7365-.4883 1.1786-.4883z"/><path d="m24.8828 28.9877c0 .6375.189 1.2607.5432 1.7907.3542.5301.8576.9432 1.4466 1.1872.589.2439 1.2371.3078 1.8623.1834.6253-.1244 1.1996-.4313 1.6504-.8821s.7578-1.0251.8821-1.6504c.1244-.6253.0606-1.2734-.1834-1.8623-.244-.589-.6571-1.0924-1.1872-1.4466-.53-.3542-1.1532-.5432-1.7907-.5432-.8549 0-1.6747.3396-2.2792.9441s-.9441 1.4243-.9441 2.2792zm4.8902 0c0 .3296-.0978.6519-.2809.9261-.1832.2741-.4435.4877-.7481.6139s-.6398.1592-.9631.0949c-.3234-.0644-.6204-.2231-.8535-.4563-.2331-.2331-.3919-.5301-.4562-.8534-.0643-.3234-.0313-.6585.0949-.9631.1261-.3046.3398-.5649.6139-.7481s.5964-.2809.9261-.2809c.4421 0 .8661.1756 1.1787.4882s.4882.7366.4882 1.1787z"/><path d="m18.0726 33.0807c.1728.1126.3833.1519.5851.1094.2019-.0426.3785-.1635.4912-.3363l11.0008-16.8727c.1128-.1736.1521-.3849.1091-.5875-.043-.2025-.1646-.3797-.3382-.4925-.086-.0559-.1821-.0943-.2829-.113s-.2043-.0174-.3046.0039c-.2025.0429-.3797.1646-.4925.3382l-11.0007 16.8727c-.0557.086-.0939.1821-.1123.2829-.0185.1008-.0168.2042.0048.3044.0216.1001.0628.195.1212.2792.0583.0841.1328.156.219.2113z"/></g></svg>