<svg xmlns="http://www.w3.org/2000/svg" fill="none" height="48" viewBox="0 0 48 48" width="48"><g fill="#0277bd"><path d="m14.9752 28.5315h-2.4705c-.2485 0-.45.2015-.45.45v2.4705c0 .2485.2015.45.45.45h2.4705c.2485 0 .45-.2015.45-.45v-2.4705c0-.2485-.2015-.45-.45-.45z"/><path d="m14.9752 21.7935h-2.4705c-.2485 0-.45.2015-.45.45v2.4705c0 .2485.2015.45.45.45h2.4705c.2485 0 .45-.2015.45-.45v-2.4705c0-.2485-.2015-.45-.45-.45z"/><path d="m35.2057 21.7935h-2.4705c-.2486 0-.45.2015-.45.45v2.4705c0 .2485.2014.45.45.45h2.4705c.2485 0 .45-.2015.45-.45v-2.4705c0-.2485-.2015-.45-.45-.45z"/><path d="m28.4635 21.7935h-2.4705c-.2486 0-.45.2015-.45.45v2.4705c0 .2485.2014.45.45.45h2.4705c.2485 0 .45-.2015.45-.45v-2.4705c0-.2485-.2015-.45-.45-.45z"/><path d="m35.2057 15.0435h-2.4705c-.2486 0-.45.2015-.45.45v2.4705c0 .2485.2014.45.45.45h2.4705c.2485 0 .45-.2015.45-.45v-2.4705c0-.2485-.2015-.45-.45-.45z"/><path d="m28.4635 15.0435h-2.4705c-.2486 0-.45.2015-.45.45v2.4705c0 .2485.2014.45.45.45h2.4705c.2485 0 .45-.2015.45-.45v-2.4705c0-.2485-.2015-.45-.45-.45z"/><path d="m41.1391 9.88349c-.2733-.28006-.5999-.5025-.9606-.65424s-.7481-.2297-1.1394-.22925h-16.875c-.7915.0091-1.5473.33062-2.1028.89452-.5554.56388-.8656 1.32448-.8627 2.11598v3.8355h-10.23004c-.7933.0083-1.55099.3305-2.10731.8961-.55633.5656-.866 1.3286-.86119 2.1219v17.115c-.00441.7931.30541 1.5556.86169 2.1209s1.31377.8873 2.10681.8956h19.54804l-.054-8.6775h4.2285l-.039 8.682h6.3855c.7925-.0075 1.5496-.3293 2.105-.8946.5555-.5653.8639-1.3279.8575-2.1204v-23.97c.0041-.796-.3052-1.5617-.861-2.13151zm-21.9345 26.51101h-10.23604c-.05364-.0002-.1067-.011-.15614-.0318s-.09428-.0512-.13193-.0894-.06736-.0835-.08743-.1332c-.02007-.0498-.03008-.103-.02948-.1566v-17.118c-.0008-.0532.00889-.106.02852-.1555.01962-.0494.04878-.0945.08583-.1327.03705-.0381.08126-.0686.13009-.0897.04884-.0211.10136-.0323.15454-.0331h10.23904zm19.836 0h-3.7785v-6.543c-.0251-.5372-.2539-1.0446-.6398-1.4191s-.9-.588-1.4377-.5969h-5.1315c-.5458.0035-1.0692.218-1.4605.5984-.3914.3805-.6206.8976-.6395 1.4431v6.519h-4.2v-24.381c-.0003-.1068.0418-.2092.117-.285.0381-.0408.0847-.0725.1366-.093s.1077-.0292.1634-.0255h16.869c.0518-.0005.1033.0094.1512.0293.048.0198.0914.0492.1278.0862.0392.0391.07.086.0901.1376.0201.0517.0293.107.0269.1624v23.9715c-.0043.1032-.0481.2008-.1223.2726-.0743.0718-.1734.1122-.2767.1129z"/></g></svg>